<svg width="230" height="230" viewBox="0 0 230 230" fill="none" xmlns="http://www.w3.org/2000/svg">
<circle cx="115" cy="115" r="115" fill="black"/>
<path d="M45.8 150.7C41.2 150.7 37.0667 149.9 33.4 148.3C29.8 146.633 26.9667 144.367 24.9 141.5C22.8333 138.567 21.7667 135.2 21.7 131.4H31.4C31.7333 134.667 33.0667 137.433 35.4 139.7C37.8 141.9 41.2667 143 45.8 143C50.1333 143 53.5333 141.933 56 139.8C58.5333 137.6 59.8 134.8 59.8 131.4C59.8 128.733 59.0667 126.567 57.6 124.9C56.1333 123.233 54.3 121.967 52.1 121.1C49.9 120.233 46.9333 119.3 43.2 118.3C38.6 117.1 34.9 115.9 32.1 114.7C29.3667 113.5 27 111.633 25 109.1C23.0667 106.5 22.1 103.033 22.1 98.7C22.1 94.9 23.0667 91.5333 25 88.6C26.9333 85.6667 29.6333 83.4 33.1 81.8C36.6333 80.2 40.6667 79.4 45.2 79.4C51.7333 79.4 57.0667 81.0333 61.2 84.3C65.4 87.5667 67.7667 91.9 68.3 97.3H58.3C57.9667 94.6333 56.5667 92.3 54.1 90.3C51.6333 88.2333 48.3667 87.2 44.3 87.2C40.5 87.2 37.4 88.2 35 90.2C32.6 92.1333 31.4 94.8667 31.4 98.4C31.4 100.933 32.1 103 33.5 104.6C34.9667 106.2 36.7333 107.433 38.8 108.3C40.9333 109.1 43.9 110.033 47.7 111.1C52.3 112.367 56 113.633 58.8 114.9C61.6 116.1 64 118 66 120.6C68 123.133 69 126.6 69 131C69 134.4 68.1 137.6 66.3 140.6C64.5 143.6 61.8333 146.033 58.3 147.9C54.7667 149.767 50.6 150.7 45.8 150.7ZM78.9914 115.1C78.9914 108.3 80.5247 102.2 83.5914 96.8C86.6581 91.3333 90.8247 87.0667 96.0914 84C101.425 80.9333 107.325 79.4 113.791 79.4C121.391 79.4 128.025 81.2333 133.691 84.9C139.358 88.5667 143.491 93.7667 146.091 100.5H135.191C133.258 96.3 130.458 93.0667 126.791 90.8C123.191 88.5333 118.858 87.4 113.791 87.4C108.925 87.4 104.558 88.5333 100.691 90.8C96.8247 93.0667 93.7914 96.3 91.5914 100.5C89.3914 104.633 88.2914 109.5 88.2914 115.1C88.2914 120.633 89.3914 125.5 91.5914 129.7C93.7914 133.833 96.8247 137.033 100.691 139.3C104.558 141.567 108.925 142.7 113.791 142.7C118.858 142.7 123.191 141.6 126.791 139.4C130.458 137.133 133.258 133.9 135.191 129.7H146.091C143.491 136.367 139.358 141.533 133.691 145.2C128.025 148.8 121.391 150.6 113.791 150.6C107.325 150.6 101.425 149.1 96.0914 146.1C90.8247 143.033 86.6581 138.8 83.5914 133.4C80.5247 128 78.9914 121.9 78.9914 115.1ZM194.538 114.1C197.071 114.5 199.371 115.533 201.438 117.2C203.571 118.867 205.238 120.933 206.438 123.4C207.704 125.867 208.338 128.5 208.338 131.3C208.338 134.833 207.438 138.033 205.638 140.9C203.838 143.7 201.204 145.933 197.738 147.6C194.338 149.2 190.304 150 185.638 150H159.638V80.3H184.638C189.371 80.3 193.404 81.1 196.738 82.7C200.071 84.2333 202.571 86.3333 204.238 89C205.904 91.6667 206.738 94.6667 206.738 98C206.738 102.133 205.604 105.567 203.337 108.3C201.138 110.967 198.204 112.9 194.538 114.1ZM168.738 110.4H184.038C188.304 110.4 191.604 109.4 193.938 107.4C196.271 105.4 197.438 102.633 197.438 99.1C197.438 95.5667 196.271 92.8 193.938 90.8C191.604 88.8 188.238 87.8 183.838 87.8H168.738V110.4ZM184.838 142.5C189.371 142.5 192.904 141.433 195.438 139.3C197.971 137.167 199.238 134.2 199.238 130.4C199.238 126.533 197.904 123.5 195.238 121.3C192.571 119.033 189.004 117.9 184.538 117.9H168.738V142.5H184.838Z" fill="url(#paint0_linear)"/>
<defs>
<linearGradient id="paint0_linear" x1="40" y1="81" x2="199" y2="150" gradientUnits="userSpaceOnUse">
<stop stop-color="#2FEAA8"/>
<stop offset="1" stop-color="#11ABDA"/>
</linearGradient>
</defs>
</svg>
